# xmcd
#
# Track frame offsets:
#	150
#	16017
#	31102
#	46960
#	58730
#	72115
#	87215
#	100217
#	117237
#	129905
#	142165
#	158420
#	170550
#	182287
#
# Disc length: 2652
#
# Revision: 1
# Processed by: cddbd v1.5.1PL0 Copyright (c) Steve Scherf et al.
# Submitted via: VisiTrax 2.9.3.171 - For more info visit www.synapsa.com
# Normalized: r0:DSETVAR1
#
DISCID=a90a5a0e
DTITLE=Various Artist - Mr Music Country 7-01
DYEAR=1900
DGENRE=
TTITLE0=Danni Leigh - I Don't Feel That Way
TTITLE1=Hatchett - Make My Day Tonight
TTITLE2=Kristyn Smyth - Strong As An Oak
TTITLE3=BR5-49 - Honky tonk Song
TTITLE4=Roger Wallace - First Train Heading South
TTITLE5=Tracy Byrd - Ain't It Just Like a Woman
TTITLE6=Brad Paisley - Don't Breathe
TTITLE7=Pam Tillis - It Isn't Just Raining
TTITLE8=Rip Masters - Two Kinds Of Money
TTITLE9=Derrick Mehaffey - I'll Never Write This Song Again
TTITLE10=Alabama - I Can't Love You Any Less
TTITLE11=Moe Bandy - Amarillo By Morning
TTITLE12=Shannon Brown - Half a Man
TTITLE13=Lamar Morris - Walls Of Memories
EXTD=
EXTT0=
EXTT1=
EXTT2=
EXTT3=
EXTT4=
EXTT5=
EXTT6=
EXTT7=
EXTT8=
EXTT9=
EXTT10=
EXTT11=
EXTT12=
EXTT13=
PLAYORDER=
